<mxfile host="app.diagrams.net" modified="2021-08-29T17:24:52.773Z" agent="5.0 (Windows NT 6.1; Win64; x64) AppleWebKit/537.36 (KHTML, like Gecko) Chrome/92.0.4515.159 Safari/537.36" etag="KFGFNI62aMtRbZbsdKno" version="15.0.3" type="github">
  <diagram id="9aMuWdXY8He_exloVPv0" name="Page-1">
    <mxGraphModel dx="1185" dy="635" grid="1" gridSize="10" guides="1" tooltips="1" connect="1" arrows="1" fold="1" page="1" pageScale="1" pageWidth="827" pageHeight="1169" math="0" shadow="0">
      <root>
        <mxCell id="0" />
        <mxCell id="1" parent="0" />
        <mxCell id="TGN77PyQoXoDhrCZIme2-1" value="" style="ellipse;whiteSpace=wrap;html=1;aspect=fixed;" vertex="1" parent="1">
          <mxGeometry x="360" y="40" width="80" height="80" as="geometry" />
        </mxCell>
        <mxCell id="TGN77PyQoXoDhrCZIme2-2" value="" style="rounded=1;whiteSpace=wrap;html=1;fontStyle=0;fontSize=18;" vertex="1" parent="1">
          <mxGeometry x="340" y="140" width="120" height="60" as="geometry" />
        </mxCell>
        <mxCell id="TGN77PyQoXoDhrCZIme2-3" value="" style="rhombus;whiteSpace=wrap;html=1;" vertex="1" parent="1">
          <mxGeometry x="360" y="240" width="80" height="80" as="geometry" />
        </mxCell>
        <mxCell id="TGN77PyQoXoDhrCZIme2-4" value="" style="endArrow=classic;html=1;entryX=0.5;entryY=0;entryDx=0;entryDy=0;exitX=0.5;exitY=1;exitDx=0;exitDy=0;" edge="1" parent="1" source="TGN77PyQoXoDhrCZIme2-1" target="TGN77PyQoXoDhrCZIme2-2">
          <mxGeometry width="50" height="50" relative="1" as="geometry">
            <mxPoint x="380" y="410" as="sourcePoint" />
            <mxPoint x="430" y="360" as="targetPoint" />
          </mxGeometry>
        </mxCell>
        <mxCell id="TGN77PyQoXoDhrCZIme2-5" value="" style="endArrow=classic;html=1;entryX=0.5;entryY=0;entryDx=0;entryDy=0;exitX=0.5;exitY=1;exitDx=0;exitDy=0;" edge="1" parent="1" source="TGN77PyQoXoDhrCZIme2-2" target="TGN77PyQoXoDhrCZIme2-3">
          <mxGeometry width="50" height="50" relative="1" as="geometry">
            <mxPoint x="380" y="410" as="sourcePoint" />
            <mxPoint x="430" y="360" as="targetPoint" />
          </mxGeometry>
        </mxCell>
        <mxCell id="TGN77PyQoXoDhrCZIme2-6" value="Начало" style="text;html=1;strokeColor=none;fillColor=none;align=center;verticalAlign=middle;whiteSpace=wrap;rounded=0;fontSize=20;" vertex="1" parent="1">
          <mxGeometry x="370" y="60" width="60" height="40" as="geometry" />
        </mxCell>
        <mxCell id="TGN77PyQoXoDhrCZIme2-7" value="Объявление&amp;nbsp;&lt;br&gt;А, В и С" style="text;html=1;strokeColor=none;fillColor=none;align=center;verticalAlign=middle;whiteSpace=wrap;rounded=0;fontSize=18;" vertex="1" parent="1">
          <mxGeometry x="340" y="140" width="120" height="60" as="geometry" />
        </mxCell>
        <mxCell id="TGN77PyQoXoDhrCZIme2-8" value="А &amp;gt; В" style="text;html=1;strokeColor=none;fillColor=none;align=center;verticalAlign=middle;whiteSpace=wrap;rounded=0;fontSize=18;" vertex="1" parent="1">
          <mxGeometry x="372" y="270" width="56" height="20" as="geometry" />
        </mxCell>
        <mxCell id="TGN77PyQoXoDhrCZIme2-9" value="" style="rounded=1;whiteSpace=wrap;html=1;fontSize=18;" vertex="1" parent="1">
          <mxGeometry x="220" y="320" width="120" height="60" as="geometry" />
        </mxCell>
        <mxCell id="TGN77PyQoXoDhrCZIme2-10" value="" style="rounded=1;whiteSpace=wrap;html=1;fontSize=18;" vertex="1" parent="1">
          <mxGeometry x="380" y="360" width="120" height="60" as="geometry" />
        </mxCell>
        <mxCell id="TGN77PyQoXoDhrCZIme2-11" value="" style="rhombus;whiteSpace=wrap;html=1;fontSize=18;" vertex="1" parent="1">
          <mxGeometry x="520" y="300" width="80" height="80" as="geometry" />
        </mxCell>
        <mxCell id="TGN77PyQoXoDhrCZIme2-12" value="" style="endArrow=classic;html=1;fontSize=18;entryX=0.5;entryY=0;entryDx=0;entryDy=0;exitX=0;exitY=0.5;exitDx=0;exitDy=0;" edge="1" parent="1" source="TGN77PyQoXoDhrCZIme2-3" target="TGN77PyQoXoDhrCZIme2-9">
          <mxGeometry width="50" height="50" relative="1" as="geometry">
            <mxPoint x="380" y="320" as="sourcePoint" />
            <mxPoint x="430" y="270" as="targetPoint" />
            <Array as="points">
              <mxPoint x="280" y="280" />
            </Array>
          </mxGeometry>
        </mxCell>
        <mxCell id="TGN77PyQoXoDhrCZIme2-13" value="" style="endArrow=classic;html=1;fontSize=18;entryX=0.5;entryY=0;entryDx=0;entryDy=0;exitX=1;exitY=0.5;exitDx=0;exitDy=0;" edge="1" parent="1" source="TGN77PyQoXoDhrCZIme2-3" target="TGN77PyQoXoDhrCZIme2-11">
          <mxGeometry width="50" height="50" relative="1" as="geometry">
            <mxPoint x="380" y="320" as="sourcePoint" />
            <mxPoint x="430" y="270" as="targetPoint" />
            <Array as="points">
              <mxPoint x="560" y="280" />
            </Array>
          </mxGeometry>
        </mxCell>
        <mxCell id="TGN77PyQoXoDhrCZIme2-14" value="" style="endArrow=classic;html=1;fontSize=18;entryX=0.5;entryY=0;entryDx=0;entryDy=0;exitX=0;exitY=0.5;exitDx=0;exitDy=0;" edge="1" parent="1" source="TGN77PyQoXoDhrCZIme2-11" target="TGN77PyQoXoDhrCZIme2-10">
          <mxGeometry width="50" height="50" relative="1" as="geometry">
            <mxPoint x="470" y="330" as="sourcePoint" />
            <mxPoint x="430" y="270" as="targetPoint" />
            <Array as="points">
              <mxPoint x="440" y="340" />
            </Array>
          </mxGeometry>
        </mxCell>
        <mxCell id="TGN77PyQoXoDhrCZIme2-15" value="" style="rounded=1;whiteSpace=wrap;html=1;fontSize=18;" vertex="1" parent="1">
          <mxGeometry x="620" y="360" width="120" height="60" as="geometry" />
        </mxCell>
        <mxCell id="TGN77PyQoXoDhrCZIme2-16" value="" style="endArrow=classic;html=1;fontSize=18;entryX=0.5;entryY=0;entryDx=0;entryDy=0;exitX=1;exitY=0.5;exitDx=0;exitDy=0;" edge="1" parent="1" source="TGN77PyQoXoDhrCZIme2-11" target="TGN77PyQoXoDhrCZIme2-15">
          <mxGeometry width="50" height="50" relative="1" as="geometry">
            <mxPoint x="550" y="320" as="sourcePoint" />
            <mxPoint x="600" y="270" as="targetPoint" />
            <Array as="points">
              <mxPoint x="680" y="340" />
            </Array>
          </mxGeometry>
        </mxCell>
        <mxCell id="TGN77PyQoXoDhrCZIme2-17" value="Напечатать А" style="text;html=1;strokeColor=none;fillColor=none;align=center;verticalAlign=middle;whiteSpace=wrap;rounded=0;fontSize=18;" vertex="1" parent="1">
          <mxGeometry x="220" y="320" width="120" height="60" as="geometry" />
        </mxCell>
        <mxCell id="TGN77PyQoXoDhrCZIme2-19" value="Напечатать С" style="text;html=1;strokeColor=none;fillColor=none;align=center;verticalAlign=middle;whiteSpace=wrap;rounded=0;fontSize=18;" vertex="1" parent="1">
          <mxGeometry x="620" y="360" width="120" height="60" as="geometry" />
        </mxCell>
        <mxCell id="TGN77PyQoXoDhrCZIme2-20" value="В &amp;gt; C" style="text;html=1;strokeColor=none;fillColor=none;align=center;verticalAlign=middle;whiteSpace=wrap;rounded=0;fontSize=18;" vertex="1" parent="1">
          <mxGeometry x="530" y="320" width="50" height="40" as="geometry" />
        </mxCell>
        <mxCell id="TGN77PyQoXoDhrCZIme2-21" value="true" style="text;html=1;strokeColor=none;fillColor=none;align=center;verticalAlign=middle;whiteSpace=wrap;rounded=0;fontSize=18;" vertex="1" parent="1">
          <mxGeometry x="260" y="250" width="40" height="20" as="geometry" />
        </mxCell>
        <mxCell id="TGN77PyQoXoDhrCZIme2-22" value="false" style="text;html=1;strokeColor=none;fillColor=none;align=center;verticalAlign=middle;whiteSpace=wrap;rounded=0;fontSize=18;" vertex="1" parent="1">
          <mxGeometry x="535" y="250" width="40" height="20" as="geometry" />
        </mxCell>
        <mxCell id="TGN77PyQoXoDhrCZIme2-23" value="Напечатать В" style="text;html=1;strokeColor=none;fillColor=none;align=center;verticalAlign=middle;whiteSpace=wrap;rounded=0;fontSize=18;" vertex="1" parent="1">
          <mxGeometry x="380" y="360" width="120" height="60" as="geometry" />
        </mxCell>
        <mxCell id="TGN77PyQoXoDhrCZIme2-24" value="true" style="text;html=1;strokeColor=none;fillColor=none;align=center;verticalAlign=middle;whiteSpace=wrap;rounded=0;fontSize=18;" vertex="1" parent="1">
          <mxGeometry x="420" y="310" width="40" height="20" as="geometry" />
        </mxCell>
        <mxCell id="TGN77PyQoXoDhrCZIme2-25" value="false" style="text;html=1;strokeColor=none;fillColor=none;align=center;verticalAlign=middle;whiteSpace=wrap;rounded=0;fontSize=18;" vertex="1" parent="1">
          <mxGeometry x="650" y="310" width="40" height="20" as="geometry" />
        </mxCell>
        <mxCell id="TGN77PyQoXoDhrCZIme2-26" value="" style="ellipse;whiteSpace=wrap;html=1;aspect=fixed;fontSize=18;" vertex="1" parent="1">
          <mxGeometry x="360" y="530" width="80" height="80" as="geometry" />
        </mxCell>
        <mxCell id="TGN77PyQoXoDhrCZIme2-27" value="" style="endArrow=none;html=1;fontSize=18;exitX=0.5;exitY=1;exitDx=0;exitDy=0;entryX=0.5;entryY=1;entryDx=0;entryDy=0;" edge="1" parent="1" source="TGN77PyQoXoDhrCZIme2-17" target="TGN77PyQoXoDhrCZIme2-19">
          <mxGeometry width="50" height="50" relative="1" as="geometry">
            <mxPoint x="410" y="430" as="sourcePoint" />
            <mxPoint x="460" y="380" as="targetPoint" />
            <Array as="points">
              <mxPoint x="280" y="480" />
              <mxPoint x="680" y="480" />
            </Array>
          </mxGeometry>
        </mxCell>
        <mxCell id="TGN77PyQoXoDhrCZIme2-28" value="" style="endArrow=none;html=1;fontSize=18;entryX=0.5;entryY=1;entryDx=0;entryDy=0;" edge="1" parent="1" target="TGN77PyQoXoDhrCZIme2-23">
          <mxGeometry width="50" height="50" relative="1" as="geometry">
            <mxPoint x="440" y="480" as="sourcePoint" />
            <mxPoint x="460" y="430" as="targetPoint" />
          </mxGeometry>
        </mxCell>
        <mxCell id="TGN77PyQoXoDhrCZIme2-29" value="" style="endArrow=classic;html=1;fontSize=18;entryX=0.5;entryY=0;entryDx=0;entryDy=0;" edge="1" parent="1" target="TGN77PyQoXoDhrCZIme2-26">
          <mxGeometry width="50" height="50" relative="1" as="geometry">
            <mxPoint x="400" y="480" as="sourcePoint" />
            <mxPoint x="460" y="430" as="targetPoint" />
          </mxGeometry>
        </mxCell>
        <mxCell id="TGN77PyQoXoDhrCZIme2-30" value="Конец" style="text;html=1;strokeColor=none;fillColor=none;align=center;verticalAlign=middle;whiteSpace=wrap;rounded=0;fontSize=18;" vertex="1" parent="1">
          <mxGeometry x="360" y="550" width="80" height="40" as="geometry" />
        </mxCell>
      </root>
    </mxGraphModel>
  </diagram>
</mxfile>
